<svg width="20" height="20" fill="none" xmlns="http://www.w3.org/2000/svg"><path d="M8.742 1.858L4.583 3.425c-.958.358-1.741 1.492-1.741 2.508v6.192c0 .983.65 2.275 1.441 2.867l3.584 2.675c1.175.883 3.108.883 4.283 0l3.583-2.675c.792-.592 1.442-1.884 1.442-2.867V5.933c0-1.025-.783-2.158-1.742-2.516l-4.158-1.559c-.708-.258-1.842-.258-2.533 0z" stroke="#0A0723" stroke-width="1.5" stroke-linecap="round" stroke-linejoin="round"/><path d="M10 10.417a1.667 1.667 0 100-3.334 1.667 1.667 0 000 3.334zM10 10.417v2.5" stroke="#0A0723" stroke-width="1.5" stroke-miterlimit="10" stroke-linecap="round" stroke-linejoin="round"/></svg>